<?xml version="1.0" encoding="utf-8"?>
<!-- Generator: Adobe Illustrator 28.0.0, SVG Export Plug-In . SVG Version: 6.00 Build 0)  -->
<svg version="1.1" id="Capa_1" xmlns="http://www.w3.org/2000/svg" xmlns:xlink="http://www.w3.org/1999/xlink" x="0px" y="0px"
	 viewBox="0 0 566.93 566.93" style="enable-background:new 0 0 566.93 566.93;" xml:space="preserve">
<style type="text/css">
	.st0{fill:#936037;}
	.st1{fill:#FFFFFF;}
	.st2{fill:none;stroke:#FFFFFF;stroke-width:4;stroke-miterlimit:10;}
</style>
<path class="st0" d="M460,537.5H92.5C53.56,537.5,22,505.94,22,467V99.5C22,60.56,53.56,29,92.5,29H460
	c38.94,0,70.5,31.56,70.5,70.5V467C530.5,505.94,498.94,537.5,460,537.5z"/>
<g>
	<path class="st1" d="M274.59,110.64L137.94,372.76c-13.87-26.12-20.79-55.99-20.79-89.6c0-33.47,6.99-63.32,21-89.55
		c13.99-26.21,33.87-46.67,59.61-61.3C220.38,119.44,245.98,112.21,274.59,110.64z"/>
	<path class="st1" d="M365.76,126.95l-42.24,81.04c-0.31-0.21-0.64-0.43-0.95-0.62c-10.8-6.78-23.26-10.16-37.41-10.16
		c-17.08,0-31.42,4.76-43.1,14.27l52.66-101.02C321.12,111.4,344.81,116.89,365.76,126.95z"/>
	<path class="st1" d="M449.77,236.82H347.9c-3-6.3-6.54-11.87-10.68-16.7l44.08-84.53c4.28,2.69,8.44,5.64,12.46,8.78
		C422.73,167.06,441.4,197.88,449.77,236.82z"/>
	<path class="st1" d="M449.77,329.99c-8.37,38.94-27.04,69.76-56.02,92.43c-28.95,22.69-64.67,34.04-107.15,34.04
		c-24.24,0-46.43-3.83-66.6-11.51l41.22-79.06c7.28,2.47,15.25,3.69,23.93,3.69c14.15,0,26.62-3.38,37.41-10.13
		c10.77-6.76,19.22-16.58,25.33-29.45H449.77z"/>
	<path class="st1" d="M245.38,357.84l-41.62,79.9c-2.02-1.02-4.02-2.12-5.99-3.23c-19.79-11.27-36.13-25.97-48.97-44.1l65.67-125.99
		c-0.81,5.92-1.24,12.15-1.24,18.74c0,26.4,6.52,47.4,19.55,63.01C236.61,350.73,240.79,354.66,245.38,357.84z"/>
</g>
<path class="st2" d="M449.68,527.18H102.82c-38.94,0-70.5-31.56-70.5-70.5V109.82c0-38.94,31.56-70.5,70.5-70.5h346.85
	c38.94,0,70.5,31.56,70.5,70.5v346.85C520.18,495.61,488.61,527.18,449.68,527.18z"/>
</svg>
