<?xml version="1.0" encoding="utf-8"?>
<!-- Generator: Adobe Illustrator 28.0.0, SVG Export Plug-In . SVG Version: 6.00 Build 0)  -->
<svg version="1.1" id="Capa_1" xmlns="http://www.w3.org/2000/svg" xmlns:xlink="http://www.w3.org/1999/xlink" x="0px" y="0px"
	 viewBox="0 0 497 225" style="enable-background:new 0 0 497 225;" xml:space="preserve">
<style type="text/css">
	.st0{fill:#634E42;}
	.st1{fill:#936037;}
</style>
<g>
	<path class="st0" d="M222.12,96.76h-22.26L196.48,107h-18.34l22.88-62.76h20.12L243.93,107H225.5L222.12,96.76z M217.75,83.41
		l-6.77-20.3l-6.68,20.3H217.75z"/>
	<path class="st0" d="M281.4,107l-12.46-23.15h-1.87V107h-17.45V44.24h27.51c5.04,0,9.32,0.88,12.82,2.63
		c3.5,1.75,6.14,4.15,7.92,7.21c1.78,3.06,2.67,6.48,2.67,10.28c0,4.27-1.17,8.03-3.52,11.26c-2.34,3.24-5.77,5.53-10.28,6.9
		L300.9,107H281.4z M267.07,71.93h8.64c2.37,0,4.15-0.56,5.34-1.69c1.19-1.13,1.78-2.76,1.78-4.9c0-2.02-0.61-3.6-1.82-4.76
		c-1.22-1.16-2.98-1.74-5.3-1.74h-8.64V71.93z"/>
	<path class="st0" d="M325.91,93.65h19.5V107h-36.94V44.24h17.45V93.65z"/>
	<path class="st0" d="M366.06,103.48c-4.93-2.76-8.83-6.59-11.71-11.48c-2.88-4.9-4.32-10.43-4.32-16.6c0-6.17,1.44-11.71,4.32-16.6
		c2.88-4.9,6.78-8.71,11.71-11.44c4.93-2.73,10.33-4.1,16.2-4.1c5.93,0,11.35,1.37,16.25,4.1c4.9,2.73,8.77,6.54,11.62,11.44
		c2.85,4.9,4.27,10.43,4.27,16.6c0,6.17-1.42,11.71-4.27,16.6c-2.85,4.9-6.74,8.72-11.66,11.48c-4.93,2.76-10.33,4.14-16.2,4.14
		S370.99,106.24,366.06,103.48z M392.81,87.06c2.58-2.91,3.87-6.79,3.87-11.66c0-4.99-1.29-8.92-3.87-11.8
		c-2.58-2.88-6.1-4.32-10.55-4.32c-4.51,0-8.04,1.44-10.59,4.32c-2.55,2.88-3.83,6.81-3.83,11.8c0,4.93,1.28,8.83,3.83,11.71
		c2.55,2.88,6.08,4.32,10.59,4.32C386.71,91.42,390.23,89.97,392.81,87.06z"/>
	<path class="st0" d="M427.93,102.42c-4.69-3.47-7.21-8.44-7.57-14.91h18.61c0.18,2.2,0.83,3.8,1.96,4.81
		c1.13,1.01,2.58,1.51,4.36,1.51c1.6,0,2.92-0.4,3.96-1.2c1.04-0.8,1.56-1.91,1.56-3.34c0-1.84-0.86-3.26-2.58-4.27
		c-1.72-1.01-4.51-2.14-8.37-3.38c-4.09-1.36-7.4-2.68-9.93-3.96c-2.52-1.28-4.72-3.15-6.59-5.61c-1.87-2.46-2.8-5.68-2.8-9.66
		c0-4.04,1.01-7.49,3.03-10.37c2.02-2.88,4.81-5.06,8.37-6.54c3.56-1.48,7.6-2.23,12.11-2.23c7.3,0,13.13,1.71,17.49,5.12
		c4.36,3.41,6.69,8.21,6.99,14.38h-18.96c-0.06-1.9-0.64-3.32-1.74-4.27c-1.1-0.95-2.51-1.42-4.23-1.42c-1.31,0-2.38,0.39-3.21,1.16
		c-0.83,0.77-1.25,1.87-1.25,3.29c0,1.19,0.46,2.21,1.38,3.07c0.92,0.86,2.06,1.6,3.43,2.23c1.37,0.62,3.38,1.41,6.05,2.36
		c3.98,1.37,7.25,2.72,9.84,4.05c2.58,1.34,4.81,3.21,6.68,5.61c1.87,2.4,2.8,5.45,2.8,9.12c0,3.74-0.93,7.09-2.8,10.06
		c-1.87,2.97-4.57,5.31-8.1,7.03c-3.53,1.72-7.7,2.58-12.51,2.58C438.61,107.62,432.62,105.89,427.93,102.42z"/>
</g>
<g>
	<path class="st0" d="M210.28,179l-12.46-23.15h-1.87V179H178.5v-62.76H206c5.04,0,9.32,0.88,12.82,2.63
		c3.5,1.75,6.14,4.16,7.92,7.21c1.78,3.06,2.67,6.48,2.67,10.28c0,4.27-1.17,8.03-3.52,11.26c-2.34,3.24-5.77,5.54-10.28,6.9
		L229.77,179H210.28z M195.94,143.93h8.64c2.37,0,4.15-0.56,5.34-1.69c1.19-1.13,1.78-2.76,1.78-4.9c0-2.02-0.61-3.6-1.82-4.76
		c-1.22-1.16-2.98-1.74-5.3-1.74h-8.64V143.93z"/>
	<path class="st0" d="M254.43,116.24v36.41c0,3.38,0.79,5.99,2.36,7.83c1.57,1.84,3.96,2.76,7.17,2.76s5.62-0.93,7.26-2.8
		c1.63-1.87,2.45-4.46,2.45-7.79v-36.41h17.45v36.41c0,5.76-1.22,10.67-3.65,14.73c-2.43,4.07-5.74,7.12-9.93,9.17
		c-4.18,2.05-8.83,3.07-13.93,3.07c-5.1,0-9.66-1.02-13.67-3.07c-4.01-2.05-7.15-5.09-9.44-9.12c-2.29-4.04-3.43-8.96-3.43-14.78
		v-36.41H254.43z"/>
	<path class="st0" d="M319.77,164.85h26.08V179h-45.67v-13.26L326,130.31h-25.82v-14.07h45.67v13.26L319.77,164.85z"/>
</g>
<g>
	<path class="st1" d="M89.83,39.06l-57.45,110.2c-5.83-10.98-8.74-23.54-8.74-37.67c0-14.07,2.94-26.62,8.83-37.65
		c5.88-11.02,14.24-19.62,25.06-25.77C67.04,42.76,77.8,39.72,89.83,39.06z"/>
	<path class="st1" d="M128.16,45.92L110.4,79.99c-0.13-0.09-0.27-0.18-0.4-0.26c-4.54-2.85-9.78-4.27-15.73-4.27
		c-7.18,0-13.21,2-18.12,6l22.14-42.47C109.39,39.38,119.35,41.69,128.16,45.92z"/>
	<path class="st1" d="M163.48,92.11h-42.83c-1.26-2.65-2.75-4.99-4.49-7.02l18.53-35.54c1.8,1.13,3.55,2.37,5.24,3.69
		C152.11,62.78,159.96,75.74,163.48,92.11z"/>
	<path class="st1" d="M163.48,131.28c-3.52,16.37-11.37,29.33-23.55,38.86c-12.17,9.54-27.19,14.31-45.05,14.31
		c-10.19,0-19.52-1.61-28-4.84l17.33-33.24c3.06,1.04,6.41,1.55,10.06,1.55c5.95,0,11.19-1.42,15.73-4.26
		c4.53-2.84,8.08-6.97,10.65-12.38H163.48z"/>
	<path class="st1" d="M77.55,142.99l-17.5,33.59c-0.85-0.43-1.69-0.89-2.52-1.36c-8.32-4.74-15.19-10.92-20.59-18.54l27.61-52.97
		c-0.34,2.49-0.52,5.11-0.52,7.88c0,11.1,2.74,19.93,8.22,26.49C73.86,140,75.62,141.65,77.55,142.99z"/>
</g>
</svg>
