<?xml version="1.0" encoding="utf-8"?>
<!-- Generator: Adobe Illustrator 28.0.0, SVG Export Plug-In . SVG Version: 6.00 Build 0)  -->
<svg version="1.1" id="Capa_1" xmlns="http://www.w3.org/2000/svg" xmlns:xlink="http://www.w3.org/1999/xlink" x="0px" y="0px"
	 viewBox="0 0 566.93 566.93" style="enable-background:new 0 0 566.93 566.93;" xml:space="preserve">
<style type="text/css">
	.st0{fill:#936037;}
</style>
<g>
	<path class="st0" d="M270.62,33.28L72.81,412.72c-20.07-37.81-30.09-81.05-30.09-129.71c0-48.45,10.12-91.66,30.4-129.64
		c20.25-37.94,49.03-67.56,86.29-88.73C192.15,46.02,229.2,35.55,270.62,33.28z"/>
	<path class="st0" d="M402.6,56.9l-61.15,117.31c-0.45-0.31-0.93-0.62-1.38-0.9c-15.63-9.81-33.68-14.7-54.16-14.7
		c-24.72,0-45.49,6.89-62.39,20.66l76.23-146.24C337.97,34.38,372.27,42.33,402.6,56.9z"/>
	<path class="st0" d="M524.22,215.94H376.74c-4.34-9.12-9.47-17.18-15.46-24.17l63.8-122.37c6.2,3.89,12.22,8.16,18.04,12.71
		C485.07,114.95,512.1,159.58,524.22,215.94z"/>
	<path class="st0" d="M524.22,350.81c-12.12,56.37-39.15,100.99-81.09,133.81c-41.9,32.85-93.62,49.27-155.12,49.27
		c-35.09,0-67.21-5.54-96.41-16.67l59.67-114.45c10.54,3.58,22.07,5.34,34.64,5.34c20.49,0,38.53-4.89,54.16-14.67
		c15.6-9.78,27.82-24,36.67-42.63H524.22z"/>
	<path class="st0" d="M228.34,391.14l-60.26,115.66c-2.93-1.48-5.82-3.06-8.68-4.68c-28.65-16.32-52.3-37.6-70.9-63.84l95.07-182.39
		c-1.17,8.57-1.79,17.6-1.79,27.13c0,38.22,9.43,68.62,28.3,91.21C215.63,380.84,221.69,386.52,228.34,391.14z"/>
</g>
</svg>
